<svg width="18" height="17" viewBox="0 0 18 17" fill="none" xmlns="http://www.w3.org/2000/svg">
<path d="M12.333 5.16667C12.333 6.05072 11.9818 6.89857 11.3567 7.52369C10.7316 8.14881 9.88371 8.5 8.99966 8.5C8.1156 8.5 7.26775 8.14881 6.64263 7.52369C6.01751 6.89857 5.66632 6.05072 5.66632 5.16667M2.02734 4.66782L1.444 11.6678C1.31869 13.1716 1.25603 13.9235 1.51023 14.5035C1.73356 15.0131 2.12051 15.4336 2.60981 15.6985C3.16672 16 3.92121 16 5.43019 16H12.5691C14.0781 16 14.8326 16 15.3895 15.6985C15.8788 15.4336 16.2658 15.0131 16.4891 14.5035C16.7433 13.9235 16.6806 13.1716 16.5553 11.6678L15.972 4.66782C15.8642 3.37396 15.8102 2.72703 15.5237 2.23738C15.2714 1.8062 14.8957 1.4605 14.4451 1.24487C13.9333 1 13.2841 1 11.9858 1L6.01352 1C4.71518 1 4.066 1 3.55425 1.24487C3.10361 1.4605 2.7279 1.8062 2.47559 2.23738C2.18907 2.72703 2.13516 3.37396 2.02734 4.66782Z" stroke="white" stroke-linecap="round" stroke-linejoin="round"/>
</svg>
