<?xml version="1.0" encoding="utf-8"?>
<!-- Generator: Adobe Illustrator 24.3.0, SVG Export Plug-In . SVG Version: 6.00 Build 0)  -->
<svg version="1.1" id="Livello_1" xmlns="http://www.w3.org/2000/svg" xmlns:xlink="http://www.w3.org/1999/xlink" x="0px" y="0px"
	 viewBox="0 0 26 26" style="enable-background:new 0 0 26 26;" xml:space="preserve">
<style type="text/css">
	.st0{fill:#C4813B;}
</style>
<g>
	<path class="st0" d="M13,6.5c-3.6,0-6.5,2.9-6.5,6.5s2.9,6.5,6.5,6.5s6.5-2.9,6.5-6.5S16.6,6.5,13,6.5z M13,17.2
		c-2.3,0-4.2-1.9-4.2-4.2s1.9-4.2,4.2-4.2s4.2,1.9,4.2,4.2S15.3,17.2,13,17.2L13,17.2z M21.3,6.3c0,0.9-0.7,1.5-1.5,1.5
		c-0.9,0-1.5-0.7-1.5-1.5s0.7-1.5,1.5-1.5C20.6,4.7,21.3,5.4,21.3,6.3z M25.6,7.7c-0.1-2-0.6-3.9-2.1-5.3c-1.4-1.4-3.3-2-5.3-2.1
		c-2.1-0.1-8.4-0.1-10.5,0C5.7,0.4,4,1,2.4,2.4s-2,3.3-2.1,5.3c-0.1,2.1-0.1,8.4,0,10.5c0.1,2,0.6,3.9,2.1,5.3s3.3,2,5.3,2.1
		c2.1,0.1,8.4,0.1,10.5,0c2-0.1,3.9-0.6,5.3-2.1c1.4-1.4,2-3.3,2.1-5.3C25.8,16.1,25.8,9.9,25.6,7.7L25.6,7.7z M22.9,20.5
		c-0.4,1.1-1.3,2-2.4,2.4c-1.7,0.7-5.6,0.6-7.5,0.6s-5.8,0.1-7.5-0.6c-1.1-0.4-2-1.3-2.4-2.4c-0.7-1.7-0.6-5.6-0.6-7.5
		S2.4,7.2,3.1,5.5c0.4-1.1,1.3-2,2.4-2.4c1.7-0.7,5.6-0.6,7.5-0.6s5.8-0.1,7.5,0.6c1.1,0.4,2,1.3,2.4,2.4c0.7,1.7,0.6,5.6,0.6,7.5
		S23.6,18.8,22.9,20.5z"/>
</g>
</svg>
