<svg width="26" height="26" viewBox="0 0 26 26" fill="none" xmlns="http://www.w3.org/2000/svg">
<path fill-rule="evenodd" clip-rule="evenodd" d="M13.6427 23.849H13.6379C11.6973 23.8483 9.79045 23.3614 8.09683 22.4376L1.94998 24.0501L3.59498 18.0415C2.58027 16.283 2.04633 14.2883 2.0472 12.2447C2.04974 5.85146 7.2514 0.650085 13.6426 0.650085C16.7445 0.651424 19.6558 1.85898 21.845 4.05073C24.0342 6.24238 25.2392 9.15561 25.238 12.2538C25.2354 18.6456 20.0358 23.8464 13.6427 23.849ZM8.38162 20.3385L8.73355 20.5474C10.2133 21.4254 11.9094 21.8901 13.6388 21.8907H13.6427C18.9547 21.8907 23.278 17.5673 23.2802 12.2531C23.2812 9.67794 22.2797 7.25659 20.4601 5.43489C18.6405 3.61318 16.2207 2.60946 13.6465 2.60856C8.33048 2.60856 4.00705 6.93161 4.00494 12.2453C4.00419 14.0664 4.51372 15.8399 5.47846 17.3743L5.70761 17.7389L4.734 21.2953L8.38162 20.3385ZM19.0876 14.7503C19.2896 14.8479 19.4261 14.9139 19.4844 15.0111C19.5568 15.1319 19.5568 15.712 19.3155 16.3889C19.0739 17.0657 17.9165 17.6833 17.3598 17.7665C16.8606 17.8411 16.229 17.8722 15.5349 17.6517C15.1141 17.5182 14.5745 17.3399 13.8833 17.0414C11.1671 15.8685 9.33157 13.236 8.98465 12.7385C8.96035 12.7036 8.94335 12.6793 8.93387 12.6666L8.93153 12.6635C8.77819 12.4589 7.75084 11.0881 7.75084 9.66946C7.75084 8.3349 8.40639 7.63539 8.70815 7.31341C8.72882 7.29135 8.74783 7.27106 8.76486 7.25246C9.03043 6.9624 9.34433 6.88988 9.53747 6.88988C9.73059 6.88988 9.92395 6.89167 10.0928 6.90015C10.1136 6.90119 10.1352 6.90107 10.1576 6.90093C10.3265 6.89994 10.537 6.89871 10.7446 7.39749C10.8245 7.58944 10.9414 7.874 11.0647 8.17413C11.314 8.78109 11.5894 9.45171 11.6379 9.54875C11.7104 9.69378 11.7586 9.86291 11.6621 10.0564C11.6476 10.0854 11.6342 10.1127 11.6213 10.1389C11.5488 10.287 11.4955 10.3959 11.3723 10.5396C11.3239 10.5962 11.2739 10.6571 11.2239 10.718C11.1242 10.8394 11.0245 10.9608 10.9377 11.0473C10.7927 11.1917 10.6417 11.3485 10.8107 11.6385C10.9797 11.9286 11.5612 12.8773 12.4225 13.6456C13.3484 14.4714 14.1531 14.8205 14.5609 14.9974C14.6406 15.032 14.7051 15.0599 14.7524 15.0836C15.0421 15.2287 15.2111 15.2044 15.3801 15.0111C15.5491 14.8178 16.1044 14.1651 16.2975 13.8751C16.4906 13.5851 16.6838 13.6334 16.9493 13.7301C17.215 13.8269 18.6394 14.5277 18.9291 14.6727C18.9857 14.701 19.0385 14.7266 19.0876 14.7503Z" fill="#C4813B"/>
</svg>
