<?xml version="1.0" encoding="utf-8"?>
<!-- Generator: Adobe Illustrator 24.3.0, SVG Export Plug-In . SVG Version: 6.00 Build 0)  -->
<svg version="1.1" id="Livello_1" xmlns="http://www.w3.org/2000/svg" xmlns:xlink="http://www.w3.org/1999/xlink" x="0px" y="0px"
	 viewBox="0 0 18 18" style="enable-background:new 0 0 18 18;" xml:space="preserve">
<style type="text/css">
	.st0{fill:#C4813B;}
	.st1{fill:#FEFEFE;}
</style>
<g>
	<g>
		<path class="st0" d="M17.6,4.6c-0.1-0.4-0.3-0.7-0.6-1c-0.3-0.3-0.6-0.5-1-0.6c-1.4-0.4-7-0.4-7-0.4S3.4,2.7,2,3
			C1.6,3.1,1.3,3.3,1,3.6c-0.3,0.3-0.5,0.6-0.6,1C0,6.1,0,9,0,9s0,2.9,0.4,4.4c0.1,0.4,0.3,0.7,0.6,1c0.3,0.3,0.6,0.5,1,0.6
			c1.4,0.4,7,0.4,7,0.4s5.6,0,7-0.4c0.4-0.1,0.7-0.3,1-0.6c0.3-0.3,0.5-0.6,0.6-1C18,11.9,18,9,18,9S18,6.1,17.6,4.6z"/>
		<path class="st1" d="M7.2,11.7V6.3L11.9,9L7.2,11.7z"/>
	</g>
</g>
</svg>
