<svg width="265" height="20" viewBox="0 0 265 20" fill="none" xmlns="http://www.w3.org/2000/svg">
<path d="M0.570446 1.8126C0.495906 1.73806 0.458618 1.58898 0.458618 1.4399C0.458618 1.29082 0.533158 1.17899 0.644967 1.14172C1.01767 1.17899 1.46493 1.21625 2.02398 1.21625C2.58303 1.21625 3.06754 1.21625 3.47751 1.21625C3.66386 1.21625 3.88745 1.21625 4.14834 1.21625C4.40923 1.21625 4.70742 1.21625 4.9683 1.21625C5.26646 1.21625 5.52732 1.21625 5.82548 1.17898C6.12364 1.17898 6.38452 1.14172 6.60814 1.14172C6.71995 1.17899 6.79449 1.29082 6.79449 1.4399C6.79449 1.58898 6.75726 1.70079 6.64545 1.8126L6.01183 1.84986C5.41551 1.88713 5.11735 2.07345 5.11735 2.33434C5.11735 2.48342 5.26646 2.89341 5.52735 3.56426C5.78824 4.19785 6.12364 5.01778 6.57088 6.02406C7.35355 7.73848 8.13623 9.45291 8.9189 11.1673C9.70156 12.8817 10.5215 14.5589 11.3042 16.2733C11.6396 15.5651 11.975 14.857 12.3477 14.1116C12.7204 13.3662 13.0558 12.5835 13.4285 11.8381C13.5403 11.5773 13.6522 11.3537 13.7267 11.1301C13.8013 10.9064 13.8758 10.7946 13.8758 10.7201C13.8758 10.6082 13.8012 10.3474 13.6521 10.012C13.1676 8.93114 12.6831 7.81302 12.1986 6.7322C11.6768 5.65137 11.1923 4.53326 10.6333 3.45244C10.447 3.04247 10.2233 2.6698 9.96243 2.40891C9.70154 2.14802 9.36615 1.96165 8.88164 1.92438L8.21076 1.88712C8.13622 1.77531 8.06166 1.6635 8.09893 1.51442C8.09893 1.36534 8.17347 1.29078 8.28528 1.21625C8.69525 1.25351 9.14253 1.29081 9.62703 1.29081C10.1488 1.29081 10.6706 1.29081 11.1923 1.29081C12.5713 1.29081 13.5776 1.25351 14.2112 1.21625C14.2857 1.25351 14.3603 1.32808 14.3603 1.47716C14.3603 1.62624 14.3603 1.73805 14.2485 1.84986L13.5404 1.88712C13.2795 1.88712 13.0558 1.92441 12.9068 1.99895C12.7577 2.03622 12.6832 2.11075 12.6459 2.22256C12.6086 2.33437 12.6086 2.48343 12.6459 2.66978C12.6832 2.85613 12.7949 3.11702 12.944 3.41517C13.2049 4.08603 13.5404 4.83143 13.9131 5.65136C14.2858 6.4713 14.6585 7.32853 15.0684 8.18573C15.3293 7.66395 15.5902 7.1049 15.8511 6.54585C16.112 5.9868 16.3729 5.31593 16.7083 4.57053C16.9319 3.97421 17.1182 3.527 17.23 3.1543C17.3419 2.81888 17.4164 2.558 17.3791 2.37165C17.3791 2.1853 17.3046 2.07349 17.1555 1.99895C17.0437 1.92441 16.8574 1.88712 16.6337 1.88712L15.8138 1.84986C15.7393 1.70078 15.702 1.55171 15.702 1.4399C15.702 1.32809 15.7765 1.21625 15.8511 1.17898C16.5965 1.21625 17.4537 1.25355 18.4227 1.25355C18.8699 1.25355 19.3544 1.25355 19.8389 1.25355C20.3234 1.25355 20.7334 1.21625 21.0316 1.17898C21.1061 1.21625 21.1807 1.29082 21.1807 1.4399C21.1807 1.58898 21.1807 1.70079 21.0689 1.8126L20.2862 1.84986C19.988 1.84986 19.7271 1.96165 19.5408 2.11073C19.3172 2.25981 19.1308 2.44616 18.9818 2.66978C18.7954 2.8934 18.6463 3.15428 18.4972 3.45244C18.3481 3.75059 18.1991 4.01151 18.05 4.2724C17.9009 4.53329 17.7146 4.86871 17.5282 5.24141C17.3419 5.65137 17.1183 6.02409 16.8947 6.47133C16.671 6.8813 16.4847 7.29124 16.3356 7.70121C16.1493 8.11117 16.0374 8.40933 15.9256 8.63295C15.8511 8.78203 15.7765 8.89383 15.7393 9.04291C15.702 9.15472 15.6647 9.26656 15.6647 9.30383C15.6647 9.41564 15.7393 9.63923 15.8511 9.97466C16.3356 11.0182 16.7828 12.099 17.2673 13.1053C17.7519 14.1489 18.1991 15.1925 18.6463 16.236C19.0563 15.267 19.4663 14.298 19.8762 13.3662C20.2862 12.3972 20.6961 11.4282 21.1061 10.4592C21.2179 10.1238 21.4043 9.67653 21.6279 9.11748C21.8515 8.55843 22.0752 7.99939 22.2988 7.40307C22.5224 6.84403 22.746 6.32221 22.9323 5.87497C23.1187 5.42774 23.2305 5.12961 23.305 4.98054C23.4914 4.49603 23.6777 3.97425 23.8641 3.48974C24.0504 3.00523 24.125 2.66978 24.125 2.48343C24.125 2.11073 23.8268 1.88713 23.2305 1.84986L22.4478 1.8126C22.336 1.70079 22.2988 1.55171 22.2988 1.4399C22.2988 1.32809 22.3733 1.21625 22.4851 1.17898C23.0069 1.21625 23.4914 1.25355 23.9014 1.25355C24.3113 1.25355 24.7213 1.25355 25.1313 1.25355C25.6531 1.25355 26.1375 1.25355 26.5475 1.25355C26.9575 1.25355 27.3302 1.21625 27.7029 1.17898C27.8147 1.21625 27.8893 1.29082 27.8893 1.4399C27.8893 1.58898 27.852 1.70079 27.7774 1.8126L27.2556 1.84986C26.9202 1.88713 26.6221 1.96165 26.3985 2.11073C26.1748 2.25981 25.9512 2.5207 25.7276 2.85613C25.504 3.19156 25.2803 3.67608 24.9822 4.2724C24.7213 4.86872 24.3859 5.65136 23.9759 6.62037L21.9633 11.2418C21.367 12.6581 20.808 14.0371 20.2489 15.4161C19.6899 16.7951 19.1308 18.2113 18.5345 19.7021C18.4599 19.7394 18.3482 19.7766 18.1991 19.7766C18.05 19.7766 17.9382 19.7394 17.8264 19.7021C17.6028 19.1058 17.3419 18.4349 17.0437 17.7268C16.7455 17.0187 16.4474 16.3106 16.1493 15.6024C15.8511 14.8943 15.5529 14.2234 15.2548 13.5899C14.9566 12.9563 14.733 12.36 14.5094 11.9127C14.2485 12.3972 13.9876 12.9935 13.6521 13.6644C13.354 14.3352 13.0186 15.0061 12.7204 15.7142C12.4222 16.4223 12.1241 17.1305 11.8259 17.8013C11.5278 18.5094 11.3041 19.1431 11.0805 19.7021C11.006 19.7394 10.8942 19.7766 10.7451 19.7766C10.596 19.7766 10.4469 19.7394 10.3351 19.7021C10.2233 19.404 10.0743 19.0685 9.8879 18.6213C9.70156 18.2113 9.51521 17.7641 9.32886 17.3541C9.14251 16.9069 8.95615 16.5342 8.80707 16.1615C8.65799 15.7888 8.50891 15.4906 8.43437 15.3043C7.5399 13.3662 6.68269 11.4655 5.82548 9.5647C4.96828 7.66394 4.07381 5.76316 3.17933 3.82513C2.91845 3.26609 2.65757 2.81887 2.39668 2.44617C2.13579 2.11074 1.7258 1.88713 1.16675 1.84986L0.570446 1.8126Z" fill="#F7F5EF"/>
<path d="M39.9646 12.9937C39.89 12.6955 39.7783 12.4719 39.6664 12.4346C39.5546 12.3601 39.2937 12.3228 38.8465 12.3228H34.7095C34.3741 12.3228 34.1132 12.3601 34.0014 12.4346C33.8896 12.5092 33.7778 12.6955 33.666 12.9937L32.697 15.8634C32.287 17.0561 32.1006 17.8387 32.1006 18.1369C32.1006 18.286 32.1379 18.4351 32.2497 18.5096C32.3615 18.5841 32.5479 18.6587 32.8833 18.6959L33.7778 18.7705C33.8523 18.8451 33.9269 18.9569 33.9269 19.1432C33.9269 19.2923 33.8523 19.4041 33.7405 19.4786C33.3678 19.4413 32.9578 19.4413 32.5106 19.4413C32.0634 19.4413 31.5416 19.4414 30.908 19.4041C30.4608 19.4041 29.9763 19.4041 29.529 19.4413C29.0445 19.4413 28.6346 19.4786 28.2619 19.4786C28.1873 19.4413 28.1128 19.3296 28.1128 19.1432C28.1128 18.9941 28.1128 18.8451 28.2246 18.7705L29.1191 18.6959C29.4545 18.6587 29.7526 18.5469 30.0508 18.3605C30.349 18.1742 30.5726 17.8388 30.7962 17.3542C31.0198 16.7207 31.3553 15.938 31.7279 14.969C32.1379 13.9999 32.6224 12.7701 33.1815 11.2047L35.9767 3.78801C36.1631 3.3035 36.3121 2.89355 36.3867 2.5954C36.4612 2.29724 36.4612 2.03636 36.4239 1.81274C36.7594 1.7382 37.0203 1.55182 37.2812 1.36547C37.5048 1.14185 37.7284 0.955514 37.8402 0.769165C37.9148 0.769165 38.0265 0.769156 38.1011 0.806426C38.1756 0.843696 38.2129 0.918235 38.2502 0.992775C38.4365 1.58909 38.6229 2.22269 38.8465 2.81901C39.0701 3.45259 39.2565 4.04892 39.4801 4.64524L43.2443 15.6771C43.4307 16.2734 43.617 16.7207 43.7661 17.0934C43.9152 17.4661 44.0643 17.7642 44.2506 17.9506C44.3997 18.1742 44.586 18.3233 44.8097 18.3978C45.0333 18.4724 45.2569 18.5469 45.555 18.5842L46.3004 18.6587C46.375 18.7332 46.4495 18.845 46.4123 19.0314C46.4123 19.1805 46.375 19.2923 46.3004 19.3668C45.7414 19.3296 45.1824 19.2923 44.6979 19.2923C44.1761 19.2923 43.6171 19.2923 42.9835 19.2923C42.3126 19.2923 41.7163 19.2923 41.1945 19.3296C40.6727 19.3296 40.2255 19.3668 39.8155 19.3668C39.7037 19.3296 39.6292 19.2177 39.6292 19.0314C39.6292 18.8823 39.6664 18.7332 39.741 18.6587L40.5236 18.5842C40.8218 18.5469 41.0454 18.5096 41.2318 18.4351C41.4181 18.3605 41.4927 18.2487 41.4927 18.0996C41.4927 17.9506 41.4554 17.7642 41.3808 17.5033C41.3063 17.2424 41.2318 16.9815 41.12 16.6461L39.9646 12.9937ZM34.5232 10.5338C34.4114 10.832 34.3741 11.0184 34.4487 11.0929C34.4859 11.1674 34.7095 11.2047 35.1195 11.2047H38.5111C38.9211 11.2047 39.1446 11.1674 39.2192 11.0556C39.2937 10.9438 39.2565 10.7202 39.1074 10.3475L37.6166 5.87511C37.5048 5.53969 37.393 5.20428 37.2812 4.86885C37.1694 4.53342 37.0575 4.3098 36.983 4.12345H36.9457C36.9085 4.19799 36.8339 4.38434 36.6849 4.6825C36.573 4.98066 36.424 5.31609 36.2749 5.76333L34.5232 10.5338Z" fill="#F7F5EF"/>
<path d="M68.0288 14.708C68.0288 14.8943 68.0288 15.2297 68.0288 15.7142C68.0288 16.1615 68.0288 16.646 68.0288 17.1678C68.0288 17.6895 68.0287 18.1741 68.066 18.584C68.066 19.0313 68.1033 19.3294 68.1033 19.5158C68.0287 19.7021 67.8424 19.8139 67.5815 19.8139C67.507 19.7021 67.3579 19.553 67.2088 19.3667C67.0598 19.1803 66.8361 18.9195 66.5752 18.584C66.3143 18.2486 65.9789 17.8759 65.569 17.3914C65.159 16.9069 64.6745 16.3478 64.0409 15.677L57.6677 8.4466C57.4814 8.22298 57.2578 7.92485 56.9223 7.58942C56.6242 7.21672 56.326 6.88129 55.9906 6.50859C55.6552 6.13589 55.357 5.80044 55.0961 5.46502C54.8353 5.12959 54.6116 4.90596 54.4625 4.75688H54.4253C54.388 4.90596 54.3507 5.16686 54.3134 5.46502C54.3134 5.76317 54.2762 6.13588 54.2762 6.54585V12.5463C54.2762 12.8817 54.2762 13.3289 54.2762 13.8507C54.2762 14.4098 54.3135 14.9688 54.3507 15.5279C54.388 16.0869 54.4252 16.646 54.4998 17.1305C54.5743 17.6523 54.6489 17.9877 54.7607 18.174C54.8352 18.3231 55.0216 18.4349 55.2825 18.5095C55.5434 18.584 55.8415 18.6585 56.1769 18.6958L57.0342 18.7704C57.1087 18.8822 57.146 18.994 57.146 19.1431C57.146 19.2922 57.0714 19.4039 56.9969 19.4412C56.3633 19.4039 55.8043 19.3667 55.3198 19.3667C54.798 19.3667 54.3135 19.3667 53.7917 19.3667C53.1954 19.3667 52.7108 19.3667 52.2636 19.3667C51.8536 19.3667 51.4064 19.4039 50.9219 19.4412C50.8474 19.3667 50.7728 19.2548 50.7728 19.1058C50.7728 18.9567 50.7728 18.8449 50.8846 18.7331L51.63 18.6585C52.3009 18.6213 52.6736 18.4349 52.8226 18.0995C52.8972 17.8759 52.9718 17.5032 53.0463 16.9814C53.0836 16.4596 53.1208 15.9378 53.1581 15.3788C53.1581 14.8197 53.1953 14.2607 53.1953 13.7389C53.1953 13.1799 53.1953 12.7327 53.1953 12.4345V4.49601C53.1953 4.12331 53.1581 3.75059 53.1208 3.45244C53.0836 3.15428 52.8972 2.81885 52.599 2.52069C52.4127 2.33434 52.1518 2.18528 51.8536 2.07347C51.5555 1.96166 51.2201 1.88713 50.9219 1.84986L50.4374 1.8126C50.3629 1.73806 50.2883 1.58898 50.3256 1.4399C50.3256 1.29082 50.4001 1.17899 50.5119 1.14172C51.1083 1.17899 51.7046 1.21625 52.3009 1.21625C52.8972 1.21625 53.3445 1.21625 53.6053 1.21625C54.0899 1.21625 54.4998 1.17899 54.8725 1.14172C54.9843 1.47715 55.2825 1.96164 55.6925 2.52069C56.1397 3.07974 56.5869 3.67607 57.0714 4.30966C57.5559 4.90598 58.0404 5.46502 58.5249 6.02406C59.0095 6.54584 59.3449 6.95584 59.5685 7.21672L62.2147 10.1983C63.1464 11.2791 63.9663 12.2109 64.7117 12.9935C65.4199 13.7762 66.128 14.5216 66.7616 15.1552H66.7988C66.8361 15.0806 66.8734 14.9316 66.9107 14.7452C66.9107 14.5589 66.9107 14.298 66.9107 13.9998V8.11116C66.9107 7.77574 66.9107 7.3285 66.9107 6.80672C66.9107 6.24767 66.8734 5.68863 66.8361 5.12958C66.7989 4.57053 66.7616 4.01151 66.6871 3.527C66.6125 3.04249 66.5007 2.66978 66.3889 2.48343C66.3143 2.37162 66.128 2.25984 65.8671 2.1853C65.6062 2.11076 65.2335 2.03618 64.6745 1.96164L64.1899 1.92438C64.1154 1.84984 64.0409 1.70076 64.0782 1.55168C64.0782 1.4026 64.1527 1.29082 64.2645 1.25355C64.8981 1.29082 65.4571 1.32807 65.9789 1.32807C66.4634 1.32807 66.9852 1.32807 67.507 1.32807C68.1033 1.32807 68.5878 1.32807 68.9978 1.32807C69.4077 1.32807 69.855 1.29082 70.3395 1.25355C70.4513 1.32809 70.5258 1.43986 70.5258 1.58894C70.5258 1.73802 70.4886 1.84983 70.414 1.96164L70.0413 1.99895C69.1469 2.14803 68.6251 2.33438 68.5133 2.558C68.4015 2.81888 68.3269 3.19158 68.2524 3.67609C68.1778 4.1606 68.1406 4.71962 68.1406 5.27867C68.1406 5.83771 68.1033 6.39676 68.1033 6.95581C68.1033 7.47759 68.1033 7.92483 68.1033 8.22299V14.708H68.0288Z" fill="#F7F5EF"/>
<path d="M85.1729 15.2297C85.1729 15.9378 85.1729 16.5341 85.2101 16.9441C85.2101 17.3913 85.2847 17.7267 85.3965 17.9504C85.5083 18.174 85.6574 18.3603 85.881 18.4349C86.1046 18.5094 86.4028 18.584 86.8127 18.6212L87.7072 18.6957C87.7818 18.733 87.819 18.8821 87.819 19.0684C87.819 19.2548 87.7445 19.3666 87.6699 19.4039C86.8873 19.3666 86.2164 19.3294 85.6947 19.3294C85.1729 19.3294 84.6138 19.3294 84.092 19.3294C83.5703 19.3294 82.9739 19.3294 82.4149 19.3294C81.8558 19.3294 81.1477 19.3666 80.2533 19.4039C80.1787 19.3666 80.1042 19.2548 80.1042 19.1057C80.1042 18.9194 80.1415 18.8076 80.2533 18.733L81.2595 18.6585C81.6322 18.6212 81.9677 18.5467 82.1913 18.4721C82.4149 18.3976 82.6013 18.2112 82.7131 17.9876C82.8249 17.764 82.8994 17.4286 82.9367 16.9813C82.9739 16.5341 82.9739 15.9751 82.9739 15.2669V3.00516C82.9739 2.59519 82.9367 2.3343 82.8622 2.25976C82.7876 2.18522 82.564 2.14793 82.154 2.14793H80.626C80.3278 2.14793 80.0296 2.14793 79.6942 2.14793C79.3588 2.14793 79.0606 2.18523 78.7625 2.2225C78.4643 2.25977 78.1661 2.3343 77.9052 2.44611C77.6444 2.52065 77.4208 2.66973 77.2717 2.81881C76.9362 3.11697 76.6754 3.4524 76.5263 3.75055C76.3399 4.04871 76.1908 4.38413 76.0418 4.71956C75.9299 4.7941 75.7809 4.83136 75.6318 4.75682C75.4827 4.71955 75.3709 4.60776 75.3336 4.49595C75.4454 4.19779 75.5573 3.86238 75.6318 3.48968C75.7436 3.11699 75.8181 2.78155 75.9299 2.40885C76.0045 2.03615 76.1163 1.70071 76.1908 1.32802C76.2654 0.992587 76.3399 0.657158 76.3772 0.39627C76.4145 0.359 76.489 0.359009 76.6381 0.359009C76.7871 0.359009 76.8617 0.359 76.899 0.39627C76.9735 0.843508 77.2344 1.1044 77.6444 1.14167C78.0543 1.21621 78.5761 1.25349 79.2097 1.25349H90.3161C90.6888 1.25349 90.9869 1.25349 91.2106 1.25349C91.4342 1.25349 91.6205 1.21621 91.7696 1.14167C91.9187 1.1044 92.0305 0.992596 92.1423 0.918056C92.2168 0.806247 92.3287 0.694446 92.4405 0.508097C92.515 0.470827 92.5895 0.470791 92.7014 0.470791C92.8132 0.470791 92.8877 0.508079 92.925 0.582619C92.8505 0.843508 92.7759 1.17892 92.7014 1.58889C92.6268 1.99885 92.5896 2.37158 92.5523 2.78155C92.515 3.19152 92.4777 3.56421 92.4777 3.9369C92.4777 4.3096 92.4777 4.57047 92.4777 4.75682C92.4405 4.86863 92.2914 4.94317 92.1423 4.94317C91.956 4.94317 91.8441 4.90593 91.7696 4.83139C91.7696 4.68231 91.7324 4.49596 91.6951 4.27234C91.6578 4.08599 91.6205 3.86238 91.546 3.67603C91.5087 3.48968 91.4342 3.30333 91.3596 3.15425C91.2851 3.00517 91.2106 2.89335 91.0988 2.81881C90.4652 2.37157 89.4216 2.14793 87.9308 2.14793H85.9928C85.8064 2.14793 85.6201 2.14793 85.5083 2.14793C85.3965 2.14793 85.322 2.18522 85.2847 2.25976C85.2474 2.3343 85.2101 2.40886 85.2101 2.55794C85.2101 2.66975 85.2101 2.85606 85.2101 3.07968V15.2297H85.1729Z" fill="#F7F5EF"/>
<path d="M100.565 5.35323C100.565 4.64511 100.565 4.08602 100.528 3.63878C100.528 3.19155 100.453 2.85614 100.342 2.63252C100.23 2.37163 100.081 2.22254 99.8199 2.11073C99.5963 2.03619 99.2608 1.96166 98.8881 1.88712L98.4409 1.84986C98.3663 1.81259 98.3291 1.66351 98.3291 1.47716C98.3291 1.29081 98.4036 1.17899 98.4781 1.14172C98.7763 1.14172 99.0745 1.17898 99.3353 1.17898C99.5962 1.17898 99.8571 1.17898 100.118 1.17898C100.379 1.17898 100.64 1.21625 100.901 1.21625C101.162 1.21625 101.46 1.21625 101.721 1.21625H106.864C107.758 1.21625 108.541 1.21625 109.249 1.21625C109.957 1.21625 110.404 1.17899 110.554 1.14172C110.591 1.25353 110.628 1.43987 110.665 1.73803C110.703 2.03619 110.74 2.33434 110.777 2.70704C110.814 3.07974 110.852 3.41517 110.889 3.78787C110.926 4.16057 110.964 4.49603 111.001 4.79419C110.964 4.86873 110.852 4.94323 110.665 4.94323C110.516 4.94323 110.367 4.94326 110.293 4.83145C110.181 4.49602 110.069 4.19785 109.995 3.93696C109.92 3.67607 109.771 3.41518 109.622 3.19156C109.473 2.96795 109.286 2.7816 109.063 2.63252C108.839 2.48344 108.541 2.33436 108.206 2.25982C107.907 2.18528 107.535 2.148 107.125 2.11073C106.678 2.11073 106.156 2.07347 105.559 2.07347H103.584C103.398 2.07347 103.211 2.07346 103.1 2.11073C102.988 2.11073 102.913 2.18528 102.839 2.25982C102.801 2.33436 102.764 2.44618 102.727 2.59526C102.727 2.74434 102.727 2.93068 102.727 3.19156V8.67021C102.727 8.85656 102.727 9.00567 102.764 9.11748C102.764 9.22929 102.839 9.30382 102.876 9.34109C102.951 9.37836 103.025 9.41561 103.137 9.41561C103.249 9.41561 103.398 9.41561 103.621 9.41561H105.224C105.82 9.41561 106.305 9.41562 106.715 9.37835C107.125 9.34108 107.386 9.30384 107.572 9.26657C107.721 9.2293 107.87 9.11746 107.982 9.00565C108.094 8.89384 108.168 8.67021 108.243 8.29751L108.466 7.17942C108.541 7.10488 108.653 7.03037 108.839 7.06764C109.026 7.06764 109.137 7.14219 109.175 7.21673C109.175 7.55215 109.175 7.9621 109.137 8.4466C109.1 8.93111 109.1 9.45288 109.1 9.97466C109.1 10.4592 109.1 10.9437 109.137 11.4282C109.175 11.9127 109.175 12.2854 109.175 12.6209C109.137 12.6954 108.988 12.7699 108.839 12.7699C108.653 12.7699 108.541 12.7327 108.466 12.6581L108.206 11.5773C108.168 11.3164 108.056 11.0928 107.945 10.9064C107.833 10.7201 107.647 10.6082 107.348 10.5337C107.162 10.4964 106.864 10.4592 106.528 10.4219C106.193 10.4219 105.746 10.3847 105.224 10.3847H103.621C103.211 10.3847 102.951 10.4219 102.839 10.4964C102.764 10.571 102.69 10.7574 102.69 11.1301V15.0061C102.69 15.7515 102.727 16.3478 102.801 16.7951C102.876 17.2796 103.025 17.615 103.211 17.8386C103.286 17.9132 103.398 18.025 103.51 18.0995C103.659 18.174 103.845 18.2486 104.069 18.2859C104.292 18.3231 104.628 18.3977 105 18.4349C105.41 18.4722 105.895 18.4722 106.491 18.4722C107.013 18.4722 107.46 18.4722 107.833 18.4349C108.206 18.4349 108.541 18.3976 108.802 18.3604C109.063 18.3231 109.286 18.2859 109.473 18.2486C109.659 18.2113 109.845 18.1368 109.995 18.0622C110.255 17.9132 110.554 17.615 110.889 17.1678C111.224 16.7205 111.597 16.1242 111.933 15.4161C112.007 15.3416 112.156 15.3415 112.305 15.3788C112.454 15.4161 112.566 15.4906 112.603 15.6397C112.566 15.8633 112.454 16.1615 112.38 16.5342C112.268 16.9069 112.156 17.2423 112.044 17.615C111.933 17.9877 111.821 18.3604 111.672 18.6585C111.56 18.994 111.448 19.2549 111.374 19.4412C110.74 19.4412 110.144 19.4039 109.51 19.4039C108.914 19.4039 108.28 19.4039 107.684 19.4039C107.05 19.4039 106.454 19.3667 105.858 19.3667C105.261 19.3667 104.628 19.3667 104.031 19.3667H101.572C100.975 19.3667 100.416 19.3667 99.8571 19.4039C99.2981 19.4039 98.6272 19.4412 97.8073 19.4412C97.7328 19.4039 97.6582 19.2922 97.6582 19.1431C97.6582 18.994 97.6582 18.8449 97.77 18.7704L98.6645 18.6958C99.0372 18.6585 99.3726 18.584 99.5962 18.5095C99.8198 18.4349 100.006 18.2486 100.118 18.025C100.23 17.8014 100.304 17.4659 100.342 17.0187C100.379 16.5714 100.379 16.0124 100.379 15.3043V5.35323H100.565Z" fill="#F7F5EF"/>
<path d="M120.43 4.79419C120.43 4.30968 120.43 3.93695 120.393 3.60152C120.356 3.2661 120.319 3.00522 120.207 2.81887C120.132 2.59525 119.983 2.44615 119.834 2.33434C119.685 2.22253 119.424 2.148 119.163 2.11073L118.567 2.03621C118.455 1.96167 118.381 1.84986 118.381 1.66351C118.381 1.51443 118.455 1.40261 118.604 1.32807C119.76 1.25353 120.915 1.21625 122.033 1.17898C123.151 1.14171 124.306 1.14172 125.462 1.14172C126.617 1.14172 127.698 1.179 128.667 1.29081C129.673 1.40262 130.605 1.62621 131.5 1.96164C132.431 2.29707 133.251 2.74431 133.959 3.26609C134.667 3.82513 135.226 4.45872 135.711 5.12958C136.196 5.8377 136.531 6.6204 136.755 7.44034C136.978 8.26027 137.09 9.15475 137.09 10.0492C137.09 11.8009 136.68 13.4035 135.86 14.8197C135.04 16.236 133.848 17.3914 132.282 18.2486C131.388 18.7331 130.419 19.0685 129.338 19.2549C128.257 19.4412 127.213 19.553 126.133 19.553C125.685 19.553 125.275 19.553 124.828 19.5158C124.381 19.5158 124.008 19.4785 123.598 19.4412C123.188 19.4039 122.816 19.3667 122.517 19.3667C122.182 19.3667 121.921 19.3294 121.66 19.3294C121.064 19.3294 120.505 19.3294 119.983 19.3294C119.461 19.3294 118.865 19.3667 118.231 19.4039C118.157 19.3667 118.082 19.2548 118.082 19.1058C118.082 18.9567 118.082 18.8076 118.194 18.7331L118.828 18.6585C119.238 18.6213 119.536 18.5467 119.76 18.4349C119.983 18.3604 120.132 18.174 120.244 17.9504C120.356 17.7268 120.43 17.3914 120.43 16.9441C120.43 16.4969 120.468 15.9379 120.468 15.2297V4.79419H120.43ZM122.704 14.5961C122.704 15.3415 122.741 15.9379 122.816 16.3851C122.89 16.8696 123.039 17.2423 123.263 17.5777C123.561 17.9877 124.008 18.2858 124.53 18.4722C125.052 18.6213 125.76 18.7331 126.654 18.7331C127.996 18.7331 129.152 18.5095 130.121 18.0995C131.09 17.6895 131.909 17.0932 132.506 16.3478C133.139 15.6024 133.587 14.6707 133.922 13.6271C134.22 12.5836 134.369 11.3909 134.369 10.1237C134.369 9.63924 134.332 9.08018 134.22 8.48386C134.146 7.88755 133.959 7.29127 133.698 6.65768C133.438 6.06136 133.139 5.46502 132.692 4.90597C132.282 4.34692 131.76 3.86241 131.127 3.41517C130.493 2.96794 129.711 2.63254 128.816 2.37165C127.922 2.11076 126.878 1.96164 125.685 1.96164C124.865 1.96164 124.232 1.99893 123.785 2.07347C123.337 2.14801 123.077 2.2598 122.965 2.33434C122.778 2.48342 122.704 3.19158 122.704 4.42149V14.5961Z" fill="#F7F5EF"/>
<path d="M152.37 1.8126C152.296 1.73806 152.259 1.58898 152.259 1.4399C152.259 1.29082 152.333 1.17899 152.445 1.14172C152.818 1.17899 153.265 1.21625 153.824 1.21625C154.383 1.21625 154.867 1.21625 155.277 1.21625C155.464 1.21625 155.687 1.21625 155.948 1.21625C156.209 1.21625 156.507 1.21625 156.768 1.21625C157.066 1.21625 157.327 1.21625 157.625 1.17898C157.924 1.17898 158.184 1.14172 158.408 1.14172C158.52 1.17899 158.594 1.29082 158.594 1.4399C158.594 1.58898 158.557 1.70079 158.445 1.8126L157.812 1.84986C157.215 1.88713 156.917 2.07345 156.917 2.33434C156.917 2.48342 157.066 2.89341 157.327 3.56426C157.588 4.19785 157.924 5.01778 158.371 6.02406C159.153 7.73848 159.936 9.45291 160.719 11.1673C161.501 12.8817 162.321 14.5589 163.104 16.2733C163.439 15.5651 163.775 14.857 164.148 14.1116C164.52 13.3662 164.856 12.5835 165.228 11.8381C165.34 11.5773 165.452 11.3537 165.527 11.1301C165.601 10.9064 165.676 10.7946 165.676 10.7201C165.676 10.6082 165.601 10.3474 165.452 10.012C164.968 8.93114 164.483 7.81302 163.999 6.7322C163.477 5.65137 162.992 4.53326 162.433 3.45244C162.247 3.04247 162.023 2.6698 161.762 2.40891C161.501 2.14802 161.166 1.96165 160.682 1.92438L160.011 1.88712C159.936 1.77531 159.862 1.6635 159.899 1.51442C159.899 1.36534 159.973 1.29078 160.085 1.21625C160.495 1.25351 160.942 1.29081 161.427 1.29081C161.949 1.29081 162.47 1.29081 162.992 1.29081C164.371 1.29081 165.378 1.25351 166.011 1.21625C166.086 1.25351 166.16 1.32808 166.16 1.47716C166.16 1.62624 166.16 1.73805 166.048 1.84986L165.34 1.88712C165.079 1.88712 164.856 1.92441 164.707 1.99895C164.558 2.03622 164.483 2.11075 164.446 2.22256C164.408 2.33437 164.408 2.48343 164.446 2.66978C164.483 2.85613 164.595 3.11702 164.744 3.41517C165.005 4.08603 165.34 4.83143 165.713 5.65136C166.086 6.4713 166.458 7.32853 166.868 8.18573C167.129 7.66395 167.39 7.1049 167.651 6.54585C167.912 5.9868 168.173 5.31593 168.508 4.57053C168.732 3.97421 168.918 3.527 169.03 3.1543C169.142 2.81888 169.216 2.558 169.179 2.37165C169.179 2.1853 169.105 2.07349 168.955 1.99895C168.844 1.92441 168.657 1.88712 168.434 1.88712L167.614 1.84986C167.539 1.70078 167.502 1.55171 167.502 1.4399C167.502 1.32809 167.576 1.21625 167.651 1.17898C168.396 1.21625 169.254 1.25355 170.223 1.25355C170.67 1.25355 171.154 1.25355 171.639 1.25355C172.123 1.25355 172.533 1.21625 172.831 1.17898C172.906 1.21625 172.981 1.29082 172.981 1.4399C172.981 1.58898 172.981 1.70079 172.869 1.8126L172.086 1.84986C171.788 1.84986 171.527 1.96165 171.341 2.11073C171.117 2.25981 170.931 2.44616 170.782 2.66978C170.595 2.8934 170.446 3.15428 170.297 3.45244C170.148 3.75059 169.999 4.01151 169.85 4.2724C169.701 4.53329 169.514 4.86871 169.328 5.24141C169.142 5.65137 168.918 6.02409 168.695 6.47133C168.471 6.8813 168.285 7.29124 168.135 7.70121C167.949 8.11117 167.837 8.40933 167.726 8.63295C167.651 8.78203 167.576 8.89383 167.539 9.04291C167.502 9.15472 167.465 9.26656 167.465 9.30383C167.465 9.41564 167.539 9.63923 167.651 9.97466C168.136 11.0182 168.583 12.099 169.067 13.1053C169.552 14.1489 169.999 15.1925 170.446 16.236C170.856 15.267 171.266 14.298 171.676 13.3662C172.086 12.3972 172.496 11.4282 172.906 10.4592C173.018 10.1238 173.204 9.67653 173.428 9.11748C173.651 8.55843 173.875 7.99939 174.099 7.40307C174.322 6.84403 174.546 6.32221 174.732 5.87497C174.919 5.42774 175.03 5.12961 175.105 4.98054C175.291 4.49603 175.478 3.97425 175.664 3.48974C175.85 3.00523 175.925 2.66978 175.925 2.48343C175.925 2.11073 175.627 1.88713 175.03 1.84986L174.248 1.8126C174.136 1.70079 174.099 1.55171 174.099 1.4399C174.099 1.32809 174.173 1.21625 174.285 1.17898C174.807 1.21625 175.291 1.25355 175.701 1.25355C176.111 1.25355 176.521 1.25355 176.931 1.25355C177.453 1.25355 177.937 1.25355 178.347 1.25355C178.757 1.25355 179.13 1.21625 179.503 1.17898C179.615 1.21625 179.689 1.29082 179.689 1.4399C179.689 1.58898 179.652 1.70079 179.577 1.8126L179.056 1.84986C178.72 1.88713 178.422 1.96165 178.198 2.11073C177.975 2.25981 177.751 2.5207 177.528 2.85613C177.304 3.19156 177.08 3.67608 176.782 4.2724C176.521 4.86872 176.186 5.65136 175.776 6.62037L173.763 11.2418C173.167 12.6581 172.608 14.0371 172.049 15.4161C171.49 16.7951 170.931 18.2113 170.334 19.7021C170.26 19.7394 170.148 19.7766 169.999 19.7766C169.85 19.7766 169.738 19.7394 169.626 19.7021C169.403 19.1058 169.142 18.4349 168.844 17.7268C168.545 17.0187 168.247 16.3106 167.949 15.6024C167.651 14.8943 167.353 14.2234 167.055 13.5899C166.756 12.9563 166.533 12.36 166.309 11.9127C166.048 12.3972 165.788 12.9935 165.452 13.6644C165.154 14.3352 164.818 15.0061 164.52 15.7142C164.222 16.4223 163.924 17.1305 163.626 17.8013C163.328 18.5094 163.104 19.1431 162.88 19.7021C162.806 19.7394 162.694 19.7766 162.545 19.7766C162.396 19.7766 162.247 19.7394 162.135 19.7021C162.023 19.404 161.874 19.0685 161.688 18.6213C161.501 18.2113 161.315 17.7641 161.129 17.3541C160.942 16.9069 160.756 16.5342 160.607 16.1615C160.458 15.7888 160.309 15.4906 160.234 15.3043C159.34 13.3662 158.483 11.4655 157.625 9.5647C156.768 7.66394 155.874 5.76316 154.979 3.82513C154.718 3.26609 154.457 2.81887 154.197 2.44617C153.936 2.11074 153.526 1.88713 152.967 1.84986L152.37 1.8126Z" fill="#F7F5EF"/>
<path d="M191.765 12.9937C191.69 12.6955 191.578 12.4719 191.466 12.4346C191.355 12.3601 191.094 12.3228 190.646 12.3228H186.51C186.174 12.3228 185.913 12.3601 185.801 12.4346C185.69 12.5092 185.578 12.6955 185.466 12.9937L184.497 15.8634C184.087 17.0561 183.901 17.8387 183.901 18.1369C183.901 18.286 183.938 18.4351 184.05 18.5096C184.162 18.5841 184.348 18.6587 184.683 18.6959L185.578 18.7705C185.652 18.8451 185.727 18.9569 185.727 19.1432C185.727 19.2923 185.652 19.4041 185.541 19.4786C185.168 19.4413 184.758 19.4413 184.311 19.4413C183.863 19.4413 183.342 19.4414 182.708 19.4041C182.261 19.4041 181.776 19.4041 181.329 19.4413C180.844 19.4413 180.435 19.4786 180.062 19.4786C179.987 19.4413 179.913 19.3296 179.913 19.1432C179.913 18.9941 179.913 18.8451 180.025 18.7705L180.919 18.6959C181.254 18.6587 181.553 18.5469 181.851 18.3605C182.149 18.1742 182.373 17.8388 182.596 17.3542C182.82 16.7207 183.155 15.938 183.528 14.969C183.938 13.9999 184.422 12.7701 184.981 11.2047L187.777 3.78801C187.963 3.3035 188.112 2.89355 188.187 2.5954C188.261 2.29724 188.261 2.03636 188.224 1.81274C188.559 1.7382 188.82 1.55182 189.081 1.36547C189.305 1.14185 189.528 0.955514 189.64 0.769165C189.715 0.769165 189.827 0.769156 189.901 0.806426C189.976 0.843696 190.013 0.918235 190.05 0.992775C190.236 1.58909 190.423 2.22269 190.646 2.81901C190.87 3.45259 191.056 4.04892 191.28 4.64524L195.044 15.6771C195.231 16.2734 195.417 16.7207 195.566 17.0934C195.715 17.4661 195.864 17.7642 196.051 17.9506C196.2 18.1742 196.386 18.3233 196.61 18.3978C196.833 18.4724 197.057 18.5469 197.355 18.5842L198.1 18.6587C198.175 18.7332 198.25 18.845 198.212 19.0314C198.212 19.1805 198.175 19.2923 198.1 19.3668C197.541 19.3296 196.982 19.2923 196.498 19.2923C195.976 19.2923 195.417 19.2923 194.783 19.2923C194.113 19.2923 193.516 19.2923 192.994 19.3296C192.473 19.3296 192.025 19.3668 191.615 19.3668C191.504 19.3296 191.429 19.2177 191.429 19.0314C191.429 18.8823 191.466 18.7332 191.541 18.6587L192.324 18.5842C192.622 18.5469 192.845 18.5096 193.032 18.4351C193.218 18.3605 193.293 18.2487 193.293 18.0996C193.293 17.9506 193.255 17.7642 193.181 17.5033C193.106 17.2424 193.032 16.9815 192.92 16.6461L191.765 12.9937ZM186.36 10.5338C186.249 10.832 186.211 11.0184 186.286 11.0929C186.323 11.1674 186.547 11.2047 186.957 11.2047H190.348C190.758 11.2047 190.982 11.1674 191.056 11.0556C191.131 10.9438 191.094 10.7202 190.945 10.3475L189.454 5.87511C189.342 5.53969 189.23 5.20428 189.118 4.86885C189.007 4.53342 188.895 4.3098 188.82 4.12345H188.783C188.746 4.19799 188.671 4.38434 188.522 4.6825C188.41 4.98066 188.261 5.31609 188.112 5.76333L186.36 10.5338Z" fill="#F7F5EF"/>
<path d="M209.728 15.2297C209.728 15.9378 209.728 16.5341 209.766 16.9441C209.766 17.3913 209.84 17.7267 209.952 17.9504C210.064 18.174 210.213 18.3603 210.437 18.4349C210.66 18.5094 210.958 18.584 211.368 18.6212L212.263 18.6957C212.337 18.733 212.375 18.8821 212.375 19.0684C212.375 19.2548 212.3 19.3666 212.226 19.4039C211.443 19.3666 210.772 19.3294 210.25 19.3294C209.728 19.3294 209.169 19.3294 208.648 19.3294C208.089 19.3294 207.53 19.3294 206.97 19.3294C206.411 19.3294 205.703 19.3666 204.809 19.4039C204.734 19.3666 204.66 19.2548 204.66 19.1057C204.66 18.9194 204.697 18.8076 204.809 18.733L205.815 18.6585C206.188 18.6212 206.523 18.5467 206.747 18.4721C206.97 18.3976 207.157 18.2112 207.269 17.9876C207.38 17.764 207.455 17.4286 207.492 16.9813C207.53 16.5341 207.53 15.9751 207.53 15.2669V3.00516C207.53 2.59519 207.492 2.3343 207.418 2.25976C207.343 2.18522 207.12 2.14793 206.71 2.14793H205.182C204.883 2.14793 204.585 2.14793 204.25 2.14793C203.914 2.14793 203.616 2.18523 203.318 2.2225C203.02 2.25977 202.722 2.3343 202.461 2.44611C202.2 2.52065 201.976 2.66973 201.827 2.81881C201.492 3.11697 201.231 3.4524 201.082 3.75055C200.895 4.04871 200.746 4.38413 200.597 4.71956C200.486 4.7941 200.336 4.83136 200.187 4.75682C200.038 4.71955 199.926 4.60776 199.889 4.49595C200.001 4.19779 200.113 3.86238 200.187 3.48968C200.299 3.11699 200.374 2.78155 200.486 2.40885C200.56 2.03615 200.672 1.70071 200.746 1.32802C200.821 0.992587 200.895 0.657158 200.933 0.39627C200.97 0.359 201.045 0.359009 201.194 0.359009C201.343 0.359009 201.417 0.359 201.455 0.39627C201.529 0.843508 201.79 1.1044 202.2 1.14167C202.61 1.21621 203.132 1.25349 203.765 1.25349H214.872C215.244 1.25349 215.543 1.25349 215.766 1.25349C215.99 1.25349 216.176 1.21621 216.325 1.14167C216.474 1.1044 216.586 0.992596 216.698 0.918056C216.772 0.806247 216.884 0.694446 216.996 0.508097C217.071 0.470827 217.145 0.470791 217.257 0.470791C217.369 0.470791 217.443 0.508079 217.481 0.582619C217.406 0.843508 217.331 1.17892 217.257 1.58889C217.182 1.99885 217.145 2.37158 217.108 2.78155C217.071 3.19152 217.033 3.56421 217.033 3.9369C217.033 4.3096 217.033 4.57047 217.033 4.75682C216.996 4.86863 216.847 4.94317 216.698 4.94317C216.512 4.94317 216.4 4.90593 216.325 4.83139C216.325 4.68231 216.288 4.49596 216.251 4.27234C216.213 4.08599 216.176 3.86238 216.102 3.67603C216.064 3.48968 215.99 3.30333 215.915 3.15425C215.841 3.00517 215.766 2.89335 215.654 2.81881C215.021 2.37157 213.977 2.14793 212.486 2.14793H210.548C210.362 2.14793 210.176 2.14793 210.064 2.14793C209.952 2.14793 209.878 2.18522 209.84 2.25976C209.803 2.3343 209.766 2.40886 209.766 2.55794C209.766 2.66975 209.766 2.85606 209.766 3.07968V15.2297H209.728Z" fill="#F7F5EF"/>
<path d="M222.14 10.4219C222.14 8.89382 222.438 7.47754 223.071 6.24763C223.705 5.01773 224.525 3.9742 225.569 3.15426C226.575 2.3716 227.693 1.77525 228.96 1.40255C230.227 1.02986 231.569 0.843506 232.985 0.843506C233.358 0.843506 233.768 0.843542 234.178 0.880812C234.625 0.918082 235.035 0.955315 235.482 1.02986C235.93 1.06712 236.339 1.1417 236.749 1.25351C237.159 1.32805 237.532 1.43984 237.83 1.51438C237.979 1.55165 238.128 1.58894 238.24 1.62621C238.352 1.66348 238.464 1.66348 238.613 1.62621C238.613 1.77529 238.613 1.99888 238.65 2.29704C238.688 2.5952 238.688 2.89335 238.725 3.26605C238.762 3.63874 238.799 4.01148 238.837 4.42145C238.874 4.83142 238.948 5.24135 238.986 5.68858C238.911 5.76312 238.799 5.83767 238.613 5.83767C238.464 5.83767 238.315 5.8377 238.24 5.72589C238.128 5.27865 237.979 4.79413 237.756 4.30962C237.532 3.82511 237.197 3.41514 236.787 3.00517C236.34 2.63248 235.818 2.29705 235.11 2.07343C234.439 1.81254 233.582 1.70073 232.613 1.70073C231.569 1.70073 230.563 1.88709 229.631 2.22252C228.699 2.55795 227.842 3.07971 227.134 3.75057C226.426 4.42143 225.867 5.3159 225.457 6.35946C225.047 7.40302 224.823 8.63293 224.823 10.0492C224.823 11.5027 225.047 12.7699 225.457 13.8879C225.904 15.006 226.463 15.9378 227.208 16.6832C227.954 17.4286 228.811 18.0249 229.78 18.3976C230.786 18.8076 231.83 18.9939 232.948 18.9939C233.842 18.9939 234.588 18.8821 235.259 18.6212C235.892 18.3604 236.451 18.0249 236.936 17.6522C237.383 17.2423 237.756 16.8323 238.054 16.3851C238.352 15.9378 238.576 15.4906 238.725 15.0806C238.799 15.0061 238.948 14.9688 239.097 15.006C239.247 15.0433 239.358 15.0806 239.433 15.1924C239.396 15.5651 239.284 15.9378 239.209 16.3105C239.098 16.6832 238.986 17.0559 238.874 17.3913C238.762 17.7268 238.613 18.0622 238.501 18.3231C238.389 18.584 238.24 18.8076 238.128 18.9194C237.979 18.9566 237.793 18.9939 237.644 19.0312C237.495 19.0685 237.309 19.143 237.159 19.1803C237.01 19.2176 236.787 19.2921 236.489 19.3666C236.19 19.4412 235.818 19.5157 235.445 19.5903C235.035 19.6648 234.625 19.7021 234.178 19.7393C233.731 19.7766 233.283 19.8139 232.836 19.8139C231.606 19.8139 230.376 19.6648 229.258 19.4039C228.103 19.143 227.022 18.6585 226.016 17.9876C224.935 17.2422 224.003 16.236 223.258 14.9688C222.512 13.7016 222.14 12.1736 222.14 10.4219Z" fill="#F7F5EF"/>
<path d="M251.024 10.4964C250.688 10.4964 250.428 10.4964 250.241 10.5337C250.055 10.5337 249.906 10.571 249.831 10.6455C249.757 10.6828 249.682 10.7946 249.682 10.9064C249.682 11.0182 249.645 11.1673 249.645 11.3909V15.267C249.645 15.9751 249.645 16.5714 249.682 16.9814C249.719 17.4286 249.794 17.7641 249.906 17.9877C250.018 18.2113 250.204 18.3977 250.428 18.4722C250.651 18.5467 250.949 18.6213 251.322 18.6585L252.105 18.7331C252.179 18.7703 252.216 18.9194 252.216 19.1058C252.216 19.2921 252.142 19.4039 252.067 19.4412C251.322 19.4039 250.688 19.3667 250.167 19.3667C249.645 19.3667 249.123 19.3667 248.601 19.3667C248.005 19.3667 247.483 19.3667 246.961 19.4039C246.44 19.4039 245.955 19.4412 245.396 19.4412C245.322 19.4039 245.247 19.2922 245.247 19.1431C245.247 18.994 245.247 18.8449 245.359 18.7704L245.843 18.6958C246.216 18.6213 246.514 18.5467 246.738 18.4349C246.961 18.3604 247.11 18.174 247.222 17.9504C247.334 17.7268 247.409 17.3914 247.409 16.9441C247.409 16.5342 247.446 15.9379 247.446 15.2297V5.35323C247.446 4.64511 247.446 4.04875 247.409 3.63878C247.371 3.19155 247.297 2.85615 247.185 2.59526C247.073 2.33437 246.924 2.18528 246.701 2.07347C246.477 1.99893 246.179 1.92439 245.843 1.88712L245.135 1.84986C245.061 1.81259 245.023 1.66351 245.023 1.47716C245.023 1.29081 245.098 1.17899 245.172 1.14172C245.843 1.14172 246.44 1.17898 246.961 1.17898C247.483 1.17898 248.042 1.21625 248.639 1.21625C249.16 1.21625 249.682 1.21625 250.204 1.21625C250.726 1.21625 251.247 1.17899 251.844 1.14172C251.918 1.17899 251.993 1.29081 251.993 1.47716C251.993 1.66351 251.993 1.77532 251.881 1.84986L251.359 1.88712C250.949 1.92439 250.651 1.99892 250.428 2.11073C250.204 2.22254 250.055 2.37163 249.943 2.63252C249.831 2.85614 249.757 3.19155 249.757 3.63878C249.757 4.08602 249.719 4.64511 249.719 5.35323V8.52117C249.719 8.74479 249.719 8.89383 249.757 9.04291C249.757 9.15472 249.831 9.26656 249.906 9.30383C249.98 9.3411 250.129 9.37834 250.316 9.41561C250.502 9.41561 250.763 9.41561 251.098 9.41561H258.962C259.298 9.41561 259.559 9.41561 259.745 9.41561C259.931 9.41561 260.08 9.37837 260.155 9.30383C260.229 9.26656 260.304 9.15472 260.304 9.04291C260.304 8.9311 260.341 8.74479 260.341 8.52117V5.35323C260.341 4.64511 260.341 4.04875 260.304 3.63878C260.304 3.19155 260.229 2.85614 260.118 2.63252C260.006 2.4089 259.857 2.22254 259.596 2.11073C259.372 1.99892 259.037 1.92439 258.664 1.88712L258.142 1.84986C258.068 1.81259 258.031 1.66351 258.031 1.47716C258.031 1.29081 258.105 1.17899 258.18 1.14172C258.813 1.17899 259.41 1.21625 259.894 1.21625C260.379 1.21625 260.938 1.21625 261.497 1.21625C262.018 1.21625 262.54 1.21625 263.062 1.21625C263.546 1.21625 264.143 1.17899 264.739 1.14172C264.814 1.17899 264.888 1.29081 264.888 1.47716C264.888 1.66351 264.888 1.77532 264.776 1.84986L264.217 1.88712C263.807 1.92439 263.509 1.99892 263.286 2.11073C263.062 2.22254 262.913 2.37163 262.801 2.63252C262.689 2.85614 262.615 3.19155 262.615 3.63878C262.615 4.08602 262.577 4.64511 262.577 5.35323V15.2297C262.577 15.9379 262.577 16.5342 262.615 16.9441C262.615 17.3914 262.689 17.7268 262.801 17.9504C262.913 18.174 263.062 18.3604 263.286 18.4349C263.509 18.5095 263.807 18.584 264.217 18.6585L264.888 18.7331C264.963 18.7703 265 18.9194 265 19.1058C265 19.2921 264.925 19.4039 264.851 19.4412C264.18 19.4039 263.621 19.3667 263.099 19.3667C262.577 19.3667 262.056 19.3667 261.534 19.3667C260.975 19.3667 260.416 19.3667 259.894 19.3667C259.372 19.3667 258.813 19.4039 258.217 19.4412C258.142 19.4039 258.068 19.2922 258.068 19.1431C258.068 18.994 258.068 18.8449 258.18 18.7704L258.701 18.6958C259.111 18.6585 259.447 18.584 259.67 18.4722C259.894 18.3977 260.043 18.2113 260.155 17.9877C260.267 17.7641 260.304 17.4286 260.341 16.9814C260.341 16.5342 260.379 15.9751 260.379 15.267V11.3909C260.379 11.2046 260.379 11.0182 260.341 10.9064C260.341 10.7946 260.267 10.6828 260.192 10.6455C260.118 10.6083 259.969 10.571 259.782 10.5337C259.596 10.5337 259.335 10.4964 259 10.4964H251.024Z" fill="#F7F5EF"/>
</svg>
