<svg width="311" height="372" viewBox="0 0 311 372" fill="none" xmlns="http://www.w3.org/2000/svg">
<g opacity="0.05">
<path d="M186.251 371.632C83.7436 371.632 0.434692 288.323 0.434692 185.816C0.434692 83.3089 83.7436 0 186.251 0C288.757 0 372.066 83.3089 372.066 185.816C372.066 288.323 288.757 371.632 186.251 371.632ZM186.251 5.45995C86.7378 5.45995 5.71856 86.4792 5.71856 185.992C5.71856 285.505 86.7378 366.524 186.251 366.524C285.763 366.524 366.783 285.505 366.783 185.992C366.783 86.4792 285.763 5.45995 186.251 5.45995Z" fill="#E3AA6E"/>
<path d="M186.251 347.679C97.1297 347.679 24.5645 275.114 24.5645 185.993C24.5645 96.8715 97.1297 24.3063 186.251 24.3063C275.372 24.3063 347.937 96.8715 347.937 185.993C347.937 275.114 275.372 347.679 186.251 347.679ZM186.251 29.4141C99.9477 29.4141 29.8484 99.5135 29.8484 185.817C29.8484 272.12 99.9477 342.219 186.251 342.219C272.554 342.219 342.653 272.12 342.653 185.817C342.653 99.5135 272.554 29.4141 186.251 29.4141Z" fill="#E3AA6E"/>
<path d="M293.866 139.848C290.343 140.2 285.94 140.2 280.656 140.2C276.605 140.2 272.026 140.024 266.918 139.848C265.861 140.729 265.685 141.785 266.742 143.194L270.969 143.547C273.963 143.723 275.548 144.78 275.548 146.893C275.372 147.774 275.02 149.535 274.315 152.177C273.259 154.819 272.378 157.637 271.321 160.279C268.327 167.852 264.628 177.539 259.873 189.516C255.646 199.908 251.419 210.299 247.192 220.515C242.436 209.419 237.68 198.323 232.749 187.05C232.044 185.289 231.692 184.056 231.692 183.528C231.692 182.647 232.044 181.59 232.925 180.005C236.272 172.432 239.97 164.682 244.021 156.756C245.606 153.586 247.192 150.592 248.953 147.95C250.538 145.484 252.828 144.075 255.822 143.723L260.049 143.371C260.577 142.666 260.754 141.961 260.754 141.257C260.577 140.552 260.401 140.2 259.697 139.848C255.998 140.2 251.419 140.2 246.135 140.2C241.027 140.2 236.624 140.024 232.749 139.848C232.22 140.024 232.044 140.376 232.044 141.081C231.868 141.785 232.045 142.49 232.573 143.371L236.8 143.723C238.033 143.723 238.914 143.899 239.618 144.075C240.323 144.427 240.675 145.132 240.675 146.012C240.851 147.95 239.618 151.825 236.976 157.989C233.982 165.563 231.164 171.903 228.522 177.187C224.295 167.676 220.772 159.222 217.602 151.649C216.193 148.478 215.664 146.365 216.017 145.132C216.369 144.075 217.954 143.547 220.596 143.547L224.295 143.194C224.823 142.49 224.999 141.785 224.999 141.081C224.823 140.376 224.647 140.024 223.942 139.672C222.533 139.848 220.772 139.848 218.835 140.024C218.659 139.848 218.482 139.848 218.306 139.672C215.136 139.848 211.261 140.024 206.682 140.024C201.574 140.024 196.995 139.848 193.12 139.672C193.12 139.672 193.12 139.672 192.944 139.672C192.416 139.672 191.887 139.672 191.359 139.672C190.302 140.552 190.126 141.609 191.183 143.018L195.41 143.371C198.404 143.547 199.989 144.603 199.989 146.717C199.813 147.597 199.461 149.359 198.756 152.001C197.699 154.643 196.818 157.461 195.762 160.103C193.824 164.858 191.711 170.494 189.245 177.011C187.484 173.136 185.899 169.438 184.137 165.563C181.848 160.103 180.087 155.7 178.854 152.353C178.149 150.592 177.797 149.183 177.268 148.126C176.74 147.069 176.564 146.365 176.564 145.836C176.564 144.427 178.149 143.723 181.319 143.371L184.666 143.018C185.194 142.49 185.37 141.785 185.37 141.081C185.37 140.376 185.018 139.848 184.313 139.672C184.137 139.672 183.961 139.672 183.961 139.672C183.609 139.672 183.257 139.672 182.905 139.672C177.973 139.848 173.394 140.024 169.167 140.024C164.587 140.024 160.36 139.848 156.838 139.672L156.661 139.848C155.604 139.848 154.548 139.848 153.491 139.672C152.962 140.024 152.61 140.552 152.61 141.257C152.434 141.961 152.611 142.666 152.963 143.018L156.309 143.371C159.303 143.723 161.417 144.603 162.826 146.365C163.178 146.893 163.706 147.598 164.059 148.302C163.53 150.416 162.474 153.586 160.712 157.461C157.718 165.034 154.9 171.375 152.258 176.659C148.031 167.148 144.508 158.694 141.338 151.12C139.929 147.95 139.401 145.836 139.753 144.603C140.105 143.547 141.69 143.018 144.332 143.018L148.031 142.666C148.559 141.961 148.735 141.257 148.735 140.552C148.559 139.848 148.383 139.496 147.679 139.143C144.332 139.496 139.048 139.496 132.003 139.496C126.191 139.496 121.083 139.32 116.856 139.143C116.328 139.496 115.976 139.848 115.976 140.552C115.976 141.257 116.152 141.962 116.504 142.49L119.85 142.842C122.316 143.018 124.077 143.723 125.486 145.132C126.896 146.541 127.952 148.478 128.833 150.944C134.293 162.745 139.401 174.369 144.508 186.17C145.213 187.931 145.565 189.164 145.565 190.045C145.389 190.925 144.685 193.039 143.276 196.033C139.401 204.311 135.702 212.237 132.355 219.81C124.077 201.669 115.799 183.528 107.697 165.034C105.408 159.574 103.646 155.171 102.413 151.825C101.709 150.063 101.357 148.654 100.828 147.597C100.3 146.541 100.124 145.836 100.124 145.308C100.124 143.899 101.709 143.194 104.88 142.842L108.226 142.49C108.754 141.962 108.931 141.257 108.931 140.552C108.931 139.848 108.578 139.32 107.874 139.143C102.061 139.496 96.6015 139.496 91.6699 139.496C86.5621 139.496 81.6304 139.32 77.0511 139.143C76.5227 139.496 76.1704 140.024 76.1704 140.729C75.9943 141.433 76.1703 142.138 76.5226 142.49L79.8693 142.842C82.8635 143.194 84.977 144.075 86.386 145.836C87.795 147.597 89.0278 150.063 90.2607 153.234C99.4194 173.489 108.402 193.919 117.384 214.35C120.379 221.219 123.725 229.145 127.071 237.952C127.776 238.304 128.481 238.304 129.185 238.304C129.89 238.304 130.418 238.128 130.77 237.952C136.23 223.333 142.043 209.419 148.56 196.385C154.196 208.89 160.008 222.805 165.82 237.952C166.348 238.304 167.053 238.304 167.757 238.304C168.462 238.304 168.99 238.128 169.342 237.952C174.45 224.214 179.734 210.652 185.194 197.442C187.66 203.078 190.126 208.714 192.592 214.35C195.586 221.219 198.932 229.145 202.279 237.952C202.983 238.304 203.688 238.304 204.392 238.304C205.097 238.304 205.625 238.128 205.977 237.952C211.437 223.333 217.25 209.419 223.766 196.385C229.403 208.89 235.215 222.805 241.027 237.952C241.556 238.304 242.26 238.304 242.964 238.304C243.669 238.304 244.197 238.128 244.55 237.952C250.362 222.628 256.174 207.658 262.339 192.863L272.73 168.029C276.781 157.989 279.775 151.296 281.889 147.774C283.826 144.427 286.468 142.666 289.638 142.49L292.28 142.138C292.985 141.433 293.161 140.729 293.161 140.024C294.922 140.552 294.57 140.024 293.866 139.848ZM171.808 220.515C167.053 209.419 162.298 198.323 157.366 187.05C156.661 185.289 156.309 184.056 156.309 183.528C156.309 182.647 156.661 181.59 157.542 180.005C160.712 172.608 164.411 164.858 168.286 157.108C173.394 168.557 178.501 180.005 183.609 191.63C179.91 201.317 175.859 211.004 171.808 220.515ZM219.715 196.737C215.841 205.016 212.142 212.941 208.796 220.515C203.336 208.538 197.876 196.561 192.592 184.585L199.108 169.085C201.926 162.216 204.216 156.932 205.977 153.058C211.085 164.33 216.193 175.602 220.948 186.874C221.653 188.636 222.005 189.868 222.005 190.749C222.005 191.63 221.124 193.743 219.715 196.737Z" fill="#E3AA6E"/>
</g>
</svg>
