<svg width="73" height="73" viewBox="0 0 73 73" fill="none" xmlns="http://www.w3.org/2000/svg">
<path d="M36.0867 72.1734C16.1791 72.1734 0 55.9942 0 36.0867C0 16.1791 16.1791 0 36.0867 0C55.9942 0 72.1734 16.1791 72.1734 36.0867C72.1734 55.9942 55.9942 72.1734 36.0867 72.1734ZM36.0867 1.06036C16.7606 1.06036 1.02616 16.7948 1.02616 36.1209C1.02616 55.4469 16.7606 71.1814 36.0867 71.1814C55.4127 71.1814 71.1472 55.4469 71.1472 36.1209C71.1472 16.7948 55.4127 1.06036 36.0867 1.06036Z" fill="#F7F5EF"/>
<path d="M36.0867 67.5216C18.7788 67.5216 4.68616 53.4289 4.68616 36.121C4.68616 18.8131 18.7788 4.72046 36.0867 4.72046C53.3946 4.72046 67.4873 18.8131 67.4873 36.121C67.4873 53.4289 53.3946 67.5216 36.0867 67.5216ZM36.0867 5.71242C19.3261 5.71242 5.71232 19.3262 5.71232 36.0868C5.71232 52.8475 19.3261 66.4612 36.0867 66.4612C52.8474 66.4612 66.4611 52.8475 66.4611 36.0868C66.4611 19.3262 52.8474 5.71242 36.0867 5.71242Z" fill="#F7F5EF"/>
<path d="M56.9864 27.1594C56.3023 27.2278 55.4471 27.2278 54.421 27.2278C53.6343 27.2278 52.7449 27.1936 51.7529 27.1594C51.5477 27.3304 51.5135 27.5356 51.7187 27.8093L52.5397 27.8777C53.1212 27.9119 53.429 28.1172 53.429 28.5276C53.3948 28.6987 53.3264 29.0407 53.1896 29.5538C52.9843 30.0669 52.8133 30.6141 52.6081 31.1272C52.0266 32.5981 51.3083 34.4793 50.3847 36.8053C49.5638 38.8234 48.7429 40.8415 47.922 42.8255C46.9984 40.6705 46.0748 38.5156 45.1171 36.3264C44.9802 35.9844 44.9119 35.7449 44.9119 35.6423C44.9119 35.4713 44.9803 35.2661 45.1513 34.9582C45.8012 33.4874 46.5195 31.9824 47.3062 30.4431C47.6141 29.8274 47.922 29.2459 48.264 28.7329C48.5719 28.254 49.0165 27.9803 49.598 27.9119L50.4189 27.8435C50.5215 27.7067 50.5558 27.5699 50.5558 27.433C50.5216 27.2962 50.4873 27.2278 50.3505 27.1594C49.6322 27.2278 48.7429 27.2278 47.7167 27.2278C46.7247 27.2278 45.8696 27.1936 45.1171 27.1594C45.0144 27.1936 44.9803 27.262 44.9803 27.3988C44.9461 27.5357 44.9803 27.6725 45.0829 27.8435L45.9038 27.9119C46.1432 27.9119 46.3143 27.9461 46.4511 27.9803C46.5879 28.0487 46.6563 28.1856 46.6563 28.3566C46.6905 28.7329 46.4511 29.4854 45.938 30.6825C45.3565 32.1534 44.8092 33.3848 44.2962 34.4109C43.4752 32.5638 42.7911 30.922 42.1754 29.4512C41.9018 28.8355 41.7991 28.425 41.8675 28.1856C41.9359 27.9803 42.2438 27.8777 42.7569 27.8777L43.4753 27.8093C43.5779 27.6725 43.612 27.5357 43.612 27.3988C43.5778 27.262 43.5436 27.1936 43.4068 27.1252C43.1331 27.1594 42.7911 27.1594 42.4149 27.1936C42.3807 27.1594 42.3464 27.1594 42.3122 27.1252C41.6965 27.1594 40.9441 27.1936 40.0547 27.1936C39.0628 27.1936 38.1734 27.1594 37.4208 27.1252C37.4208 27.1252 37.4209 27.1252 37.3867 27.1252C37.2841 27.1252 37.1814 27.1252 37.0788 27.1252C36.8736 27.2962 36.8394 27.5014 37.0446 27.7751L37.8655 27.8435C38.447 27.8777 38.7549 28.0829 38.7549 28.4934C38.7207 28.6644 38.6523 29.0065 38.5155 29.5196C38.3102 30.0326 38.1392 30.58 37.9339 31.093C37.5577 32.0166 37.1472 33.1111 36.6683 34.3767C36.3263 33.6242 36.0185 32.9059 35.6764 32.1534C35.2317 31.093 34.8897 30.2379 34.6502 29.588C34.5134 29.2459 34.445 28.9723 34.3424 28.767C34.2397 28.5618 34.2056 28.425 34.2056 28.3224C34.2056 28.0487 34.5134 27.9119 35.1291 27.8435L35.779 27.7751C35.8817 27.6725 35.9158 27.5357 35.9158 27.3988C35.9158 27.262 35.8474 27.1594 35.7106 27.1252C35.6764 27.1252 35.6422 27.1252 35.6422 27.1252C35.5738 27.1252 35.5054 27.1252 35.437 27.1252C34.4792 27.1594 33.5899 27.1936 32.769 27.1936C31.8796 27.1936 31.0587 27.1594 30.3746 27.1252L30.3403 27.1594C30.1351 27.1594 29.9299 27.1594 29.7246 27.1252C29.622 27.1936 29.5536 27.2962 29.5536 27.433C29.5194 27.5699 29.5537 27.7067 29.6221 27.7751L30.2719 27.8435C30.8534 27.9119 31.2639 28.0829 31.5375 28.425C31.6059 28.5276 31.7085 28.6644 31.7769 28.8012C31.6743 29.2117 31.4691 29.8274 31.1271 30.58C30.5456 32.0508 29.9983 33.2821 29.4852 34.3083C28.6643 32.4612 27.9802 30.8194 27.3645 29.3485C27.0908 28.7328 26.9883 28.3224 27.0567 28.0829C27.1251 27.8777 27.4329 27.7751 27.946 27.7751L28.6643 27.7067C28.7669 27.5699 28.8011 27.433 28.8011 27.2962C28.7669 27.1594 28.7327 27.091 28.5959 27.0226C27.946 27.091 26.9198 27.091 25.5516 27.091C24.4228 27.091 23.4309 27.0568 22.61 27.0226C22.5074 27.091 22.4389 27.1594 22.4389 27.2962C22.4389 27.433 22.4731 27.5699 22.5415 27.6725L23.1914 27.7409C23.6703 27.7751 24.0124 27.9119 24.286 28.1856C24.5596 28.4592 24.7648 28.8355 24.9359 29.3143C25.9962 31.6061 26.9882 33.8636 27.9802 36.1554C28.117 36.4975 28.1854 36.7369 28.1854 36.9079C28.1512 37.079 28.0144 37.4894 27.7408 38.0709C26.9883 39.6786 26.2699 41.2178 25.62 42.6886C24.0123 39.1655 22.4047 35.6423 20.8312 32.0508C20.3866 30.9904 20.0445 30.1353 19.8051 29.4854C19.6682 29.1433 19.5999 28.8696 19.4972 28.6644C19.3946 28.4592 19.3605 28.3224 19.3605 28.2198C19.3605 27.9461 19.6683 27.8093 20.284 27.7409L20.9339 27.6725C21.0365 27.5699 21.0707 27.433 21.0707 27.2962C21.0707 27.1594 21.0023 27.0568 20.8655 27.0226C19.7367 27.091 18.6763 27.091 17.7186 27.091C16.7266 27.091 15.7689 27.0568 14.8795 27.0226C14.7769 27.091 14.7085 27.1936 14.7085 27.3304C14.6743 27.4673 14.7085 27.6041 14.7769 27.6725L15.4268 27.7409C16.0083 27.8093 16.4188 27.9803 16.6924 28.3224C16.9661 28.6644 17.2055 29.1433 17.4449 29.759C19.2236 33.6926 20.968 37.6604 22.7125 41.6283C23.294 42.9623 23.9439 44.5015 24.5938 46.2118C24.7306 46.2802 24.8675 46.2802 25.0043 46.2802C25.1412 46.2802 25.2438 46.246 25.3122 46.2118C26.3725 43.3728 27.5013 40.6705 28.7669 38.1393C29.8615 40.5679 30.9902 43.2701 32.119 46.2118C32.2216 46.2802 32.3585 46.2802 32.4953 46.2802C32.6321 46.2802 32.7347 46.246 32.8031 46.2118C33.7951 43.5438 34.8212 40.91 35.8816 38.3446C36.3605 39.4391 36.8394 40.5337 37.3183 41.6283C37.8998 42.9623 38.5497 44.5015 39.1996 46.2118C39.3364 46.2802 39.4732 46.2802 39.61 46.2802C39.7469 46.2802 39.8494 46.246 39.9178 46.2118C40.9782 43.3728 42.107 40.6705 43.3726 38.1393C44.4672 40.5679 45.596 43.2701 46.7248 46.2118C46.8274 46.2802 46.9642 46.2802 47.101 46.2802C47.2378 46.2802 47.3405 46.246 47.4089 46.2118C48.5377 43.2359 49.6664 40.3285 50.8636 37.4552L52.8817 32.6323C53.6685 30.6826 54.2499 29.3828 54.6604 28.6987C55.0367 28.0488 55.5497 27.7067 56.1654 27.6725L56.6785 27.6041C56.8153 27.4672 56.8495 27.3304 56.8495 27.1936C57.1916 27.2962 57.1232 27.1936 56.9864 27.1594ZM33.282 42.8255C32.3585 40.6705 31.435 38.5156 30.4772 36.3264C30.3404 35.9844 30.2719 35.7449 30.2719 35.6423C30.2719 35.4713 30.3403 35.2661 30.5114 34.9582C31.1271 33.5216 31.8454 32.0166 32.5979 30.5115C33.5899 32.7349 34.5818 34.9582 35.5738 37.2158C34.8555 39.0971 34.0688 40.9784 33.282 42.8255ZM42.5859 38.2077C41.8334 39.8154 41.1151 41.3546 40.4652 42.8255C39.4048 40.4995 38.3444 38.1735 37.3183 35.8475L38.5839 32.8375C39.1312 31.5035 39.5758 30.4773 39.9178 29.7248C40.9098 31.914 41.9018 34.1031 42.8253 36.2922C42.9621 36.6343 43.0306 36.8737 43.0306 37.0447C43.0306 37.2158 42.8595 37.6262 42.5859 38.2077Z" fill="#F7F5EF"/>
</svg>
